<svg width="190" height="190" viewBox="0 0 190 190" fill="none" xmlns="http://www.w3.org/2000/svg">
<mask id="mask0" mask-type="alpha" maskUnits="userSpaceOnUse" x="0" y="0" width="190" height="190">
<circle cx="95" cy="95" r="95" fill="#C4C4C4"/>
</mask>
<g mask="url(#mask0)">
<path d="M143.085 72.3215C126.031 72.656 129.583 83.4439 117.564 86.1721C105.354 88.9438 103.427 56.375 91.2202 56.375C79.012 56.375 76.3076 88.012 61.0214 109.731L60.5853 110.346L93.3589 129.25L143.085 100.565V72.3215Z" fill="#36A2EB"/>
<path d="M143.085 71.9479C137.354 64.7035 133.466 56.375 125.103 56.375C110.302 56.375 114.196 80.1551 97.8388 80.1551C81.4796 80.1551 79.7597 54.5763 61.2275 78.621C55.3224 86.2823 50.5691 94.8249 46.8354 102.908L93.1652 129.25L143.085 100.867V71.9479Z" fill="#FFCE56"/>
<path opacity="0.8" d="M44.0854 81.5161C49.6546 66.1058 52.0582 53.625 62.6904 53.625C78.91 53.625 82.7708 99.1552 96.6755 94.5232C110.578 89.8935 109.033 65.1988 130.661 65.1988C134.777 65.1988 138.98 67.7188 143.085 71.7949V100.698L93.5866 129.25L44.0862 100.698L44.0854 81.5161Z" fill="#FE6184"/>
<path d="M92 133L41 104.001V46L92 17L143 46V104L92 133ZM46.9919 100.593L92 126.186L137.008 100.593V49.4075L92 23.8143L46.9919 49.4075V100.593Z" fill="#484E58"/>
<path d="M44.58 157.372C38.46 157.372 35.4 153.88 35.4 146.896C35.4 140.248 38.604 136.924 45.012 136.924C48.276 136.924 50.52 137.896 51.744 139.84L52.104 136.852C50.16 134.788 47.748 133.756 44.868 133.756H44.796C38.724 133.756 34.572 136.552 32.34 142.144C31.98 143.536 31.8 145.084 31.8 146.788C31.8 148.492 31.92 149.908 32.16 151.036C33.672 157.252 38.136 160.36 45.552 160.36C47.952 160.36 50.208 159.448 52.32 157.624L51.96 154.636C49.632 156.46 47.172 157.372 44.58 157.372ZM67.9313 160.108H71.4593V146.968C71.4593 142.744 68.9273 140.632 63.8633 140.632C61.8953 140.632 60.3593 141.796 59.2553 144.124V133.36H55.9073V160.108H59.2553V149.776C59.2553 148.072 59.5553 146.56 60.1553 145.24C60.7793 143.896 62.0873 143.224 64.0793 143.224C66.6473 143.224 67.9313 144.676 67.9313 147.58V160.108ZM86.9489 146.752L86.8769 147.256C81.0209 147.376 77.3849 148.552 75.9689 150.784C75.2489 151.984 74.8889 153.352 74.8889 154.888V154.996C74.8889 156.484 75.4889 157.756 76.6889 158.812C77.8889 159.868 79.6529 160.396 81.9809 160.396C84.0929 160.156 85.7249 159.04 86.8769 157.048C86.9729 158.44 87.5129 159.424 88.4969 160L91.1249 160.072C90.4049 158.632 90.0449 157.432 90.0449 156.472V148.336C90.0449 143.2 87.6809 140.632 82.9529 140.632H82.7729C79.5329 140.632 76.9649 141.58 75.0689 143.476L76.8689 145.204C78.3089 143.86 80.3489 143.188 82.9889 143.188C85.6289 143.188 86.9489 144.376 86.9489 146.752ZM78.7409 156.472C78.3809 155.968 78.2009 155.332 78.2009 154.564C78.2009 153.172 78.9449 152.032 80.4329 151.144C81.9209 150.232 84.0689 149.728 86.8769 149.632V152.476C86.8769 152.74 86.7929 153.112 86.6249 153.592C86.2169 154.96 85.6049 155.908 84.7889 156.436C83.9969 156.988 82.8809 157.264 81.4409 157.264C79.9769 157.264 79.0769 157 78.7409 156.472ZM103.598 140.632C102.35 140.632 101.186 141.04 100.106 141.856C99.0503 142.672 98.2943 143.836 97.8383 145.348V141.532H94.4903V160.108H97.8383V149.488C97.8383 147.616 98.3063 146.212 99.2423 145.276C100.178 144.34 101.678 143.836 103.742 143.764C104.198 143.764 104.666 143.812 105.146 143.908L105.182 140.704C104.366 140.656 103.838 140.632 103.598 140.632ZM118.21 156.688C117.586 157.312 116.626 157.624 115.33 157.624C113.338 157.624 112.342 156.64 112.342 154.672V144.16H117.706V141.532H112.342V135.952H109.066V141.532H106.438V144.16H109.066V155.176C109.066 158.56 110.722 160.252 114.034 160.252C116.41 160.252 117.874 159.496 118.426 157.984L118.21 156.688ZM122.37 160.108H126.438V155.68H122.37V160.108ZM132.792 138.364H136.464V134.836H132.792V138.364ZM136.284 141.208H132.936V162.592C132.936 165.016 131.112 166.228 127.464 166.228L127.86 168.604C128.028 168.628 128.4 168.64 128.976 168.64C133.848 168.64 136.284 166.336 136.284 161.728V141.208ZM155.14 145.168C154.66 143.44 153.808 142.264 152.584 141.64C151.36 140.992 149.728 140.668 147.688 140.668C142.792 140.668 140.344 142.468 140.344 146.068C140.344 147.46 140.752 148.552 141.568 149.344C142.408 150.136 143.416 150.652 144.592 150.892C145.744 151.132 146.908 151.324 148.084 151.468C149.26 151.612 150.256 151.864 151.072 152.224C151.912 152.584 152.332 153.16 152.332 153.952C152.332 155.104 151.984 155.92 151.288 156.4C150.592 156.88 149.476 157.12 147.94 157.12C144.772 157.12 143.008 156.304 142.648 154.672L139.876 155.212C140.476 158.524 143.164 160.18 147.94 160.18C150.436 160.18 152.32 159.652 153.592 158.596C154.84 157.54 155.464 156.256 155.464 154.744C155.464 153.208 155.056 152.032 154.24 151.216C153.424 150.376 152.44 149.824 151.288 149.56C150.112 149.296 148.936 149.08 147.76 148.912C146.608 148.768 145.624 148.492 144.808 148.084C143.992 147.676 143.584 147.052 143.584 146.212C143.584 145.348 143.8 144.724 144.232 144.34C144.664 143.932 145.312 143.692 146.176 143.62C146.488 143.596 147.112 143.584 148.048 143.584C149.008 143.584 149.896 143.692 150.712 143.908C151.72 144.148 152.392 144.796 152.728 145.852L155.14 145.168Z" fill="#FE6184"/>
<path d="M51.744 139.84L51.3209 140.106L52.0718 141.299L52.2404 139.9L51.744 139.84ZM52.104 136.852L52.6004 136.912L52.6284 136.68L52.468 136.509L52.104 136.852ZM32.34 142.144L31.8756 141.959L31.8639 141.988L31.8559 142.019L32.34 142.144ZM32.16 151.036L31.6709 151.14L31.6725 151.147L31.6742 151.154L32.16 151.036ZM52.32 157.624L52.6468 158.002L52.8482 157.828L52.8164 157.564L52.32 157.624ZM51.96 154.636L52.4564 154.576L52.3502 153.695L51.6516 154.242L51.96 154.636ZM44.58 156.872C41.6155 156.872 39.4782 156.029 38.071 154.423C36.6528 152.805 35.9 150.326 35.9 146.896H34.9C34.9 150.45 35.6772 153.209 37.319 155.083C38.9718 156.969 41.4245 157.872 44.58 157.872V156.872ZM35.9 146.896C35.9 143.645 36.6838 141.299 38.163 139.764C39.6389 138.233 41.8898 137.424 45.012 137.424V136.424C41.7262 136.424 39.1711 137.277 37.443 139.07C35.7182 140.859 34.9 143.499 34.9 146.896H35.9ZM45.012 137.424C48.1833 137.424 50.2238 138.364 51.3209 140.106L52.1671 139.574C50.8162 137.428 48.3687 136.424 45.012 136.424V137.424ZM52.2404 139.9L52.6004 136.912L51.6076 136.792L51.2476 139.78L52.2404 139.9ZM52.468 136.509C50.4278 134.343 47.8833 133.256 44.868 133.256V134.256C47.6127 134.256 49.8922 135.233 51.74 137.195L52.468 136.509ZM44.868 133.256H44.796V134.256H44.868V133.256ZM44.796 133.256C41.682 133.256 39.0234 133.974 36.8487 135.438C34.6737 136.903 33.0212 139.089 31.8756 141.959L32.8044 142.329C33.8908 139.607 35.4303 137.599 37.4073 136.268C39.3846 134.936 41.838 134.256 44.796 134.256V133.256ZM31.8559 142.019C31.4836 143.458 31.3 145.049 31.3 146.788H32.3C32.3 145.119 32.4764 143.614 32.8241 142.269L31.8559 142.019ZM31.3 146.788C31.3 148.512 31.4211 149.966 31.6709 151.14L32.6491 150.932C32.4189 149.85 32.3 148.472 32.3 146.788H31.3ZM31.6742 151.154C32.4536 154.359 34.007 156.804 36.3563 158.439C38.6977 160.069 41.7781 160.86 45.552 160.86V159.86C41.9099 159.86 39.0503 159.097 36.9277 157.619C34.813 156.146 33.3784 153.929 32.6458 150.918L31.6742 151.154ZM45.552 160.86C48.0912 160.86 50.4596 159.891 52.6468 158.002L51.9932 157.246C49.9564 159.005 47.8128 159.86 45.552 159.86V160.86ZM52.8164 157.564L52.4564 154.576L51.4636 154.696L51.8236 157.684L52.8164 157.564ZM51.6516 154.242C49.3986 156.008 47.0447 156.872 44.58 156.872V157.872C47.2993 157.872 49.8654 156.912 52.2684 155.03L51.6516 154.242ZM67.9313 160.108H67.4313V160.608H67.9313V160.108ZM71.4593 160.108V160.608H71.9593V160.108H71.4593ZM59.2553 144.124H58.7553L59.7071 144.338L59.2553 144.124ZM59.2553 133.36H59.7553V132.86H59.2553V133.36ZM55.9073 133.36V132.86H55.4073V133.36H55.9073ZM55.9073 160.108H55.4073V160.608H55.9073V160.108ZM59.2553 160.108V160.608H59.7553V160.108H59.2553ZM60.1553 145.24L59.7018 145.029L59.7002 145.033L60.1553 145.24ZM67.9313 160.608H71.4593V159.608H67.9313V160.608ZM71.9593 160.108V146.968H70.9593V160.108H71.9593ZM71.9593 146.968C71.9593 144.753 71.2911 143.009 69.8806 141.832C68.4876 140.67 66.4526 140.132 63.8633 140.132V141.132C66.3381 141.132 68.1011 141.65 69.2401 142.6C70.3616 143.535 70.9593 144.959 70.9593 146.968H71.9593ZM63.8633 140.132C61.6401 140.132 59.9599 141.471 58.8036 143.91L59.7071 144.338C60.7588 142.121 62.1506 141.132 63.8633 141.132V140.132ZM59.7553 144.124V133.36H58.7553V144.124H59.7553ZM59.2553 132.86H55.9073V133.86H59.2553V132.86ZM55.4073 133.36V160.108H56.4073V133.36H55.4073ZM55.9073 160.608H59.2553V159.608H55.9073V160.608ZM59.7553 160.108V149.776H58.7553V160.108H59.7553ZM59.7553 149.776C59.7553 148.131 60.0448 146.692 60.6105 145.447L59.7002 145.033C59.0659 146.428 58.7553 148.013 58.7553 149.776H59.7553ZM60.6088 145.451C61.1221 144.345 62.2027 143.724 64.0793 143.724V142.724C61.972 142.724 60.4366 143.447 59.7018 145.029L60.6088 145.451ZM64.0793 143.724C65.2692 143.724 66.075 144.058 66.5938 144.644C67.1229 145.243 67.4313 146.191 67.4313 147.58H68.4313C68.4313 146.065 68.0978 144.835 67.3429 143.982C66.5777 143.116 65.4575 142.724 64.0793 142.724V143.724ZM67.4313 147.58V160.108H68.4313V147.58H67.4313ZM86.9489 146.752L87.4439 146.823L87.4489 146.788V146.752H86.9489ZM86.8769 147.256L86.8872 147.756L87.3118 147.747L87.3719 147.327L86.8769 147.256ZM75.9689 150.784L75.5466 150.516L75.5402 150.527L75.9689 150.784ZM76.6889 158.812L76.3586 159.187L76.3586 159.187L76.6889 158.812ZM81.9809 160.396V160.896H82.0092L82.0374 160.893L81.9809 160.396ZM86.8769 157.048L87.3757 157.014L87.2632 155.381L86.4441 156.798L86.8769 157.048ZM88.4969 160L88.2443 160.432L88.355 160.496L88.4832 160.5L88.4969 160ZM91.1249 160.072L91.1112 160.572L91.9453 160.595L91.5721 159.848L91.1249 160.072ZM75.0689 143.476L74.7154 143.122L74.3545 143.483L74.7226 143.837L75.0689 143.476ZM76.8689 145.204L76.5226 145.565L76.8641 145.892L77.2101 145.57L76.8689 145.204ZM78.7409 156.472L79.1627 156.204L79.1556 156.192L79.1478 156.181L78.7409 156.472ZM80.4329 151.144L80.6892 151.573L80.6942 151.57L80.4329 151.144ZM86.8769 149.632H87.3769V149.115L86.8598 149.132L86.8769 149.632ZM86.6249 153.592L86.153 153.427L86.1491 153.438L86.1458 153.449L86.6249 153.592ZM84.7889 156.436L84.5173 156.016L84.5101 156.021L84.503 156.026L84.7889 156.436ZM86.4539 146.681L86.3819 147.185L87.3719 147.327L87.4439 146.823L86.4539 146.681ZM86.8667 146.756C83.9129 146.817 81.4862 147.144 79.604 147.752C77.7234 148.361 76.3398 149.266 75.5467 150.516L76.3911 151.052C77.014 150.07 78.1564 149.271 79.9118 148.704C81.6656 148.136 83.9849 147.815 86.8872 147.756L86.8667 146.756ZM75.5402 150.527C74.7691 151.812 74.3889 153.27 74.3889 154.888H75.3889C75.3889 153.434 75.7288 152.156 76.3977 151.041L75.5402 150.527ZM74.3889 154.888V154.996H75.3889V154.888H74.3889ZM74.3889 154.996C74.3889 156.639 75.0598 158.044 76.3586 159.187L77.0192 158.437C75.918 157.468 75.3889 156.329 75.3889 154.996H74.3889ZM76.3586 159.187C77.6838 160.354 79.5858 160.896 81.9809 160.896V159.896C79.72 159.896 78.094 159.382 77.0192 158.437L76.3586 159.187ZM82.0374 160.893C84.3213 160.633 86.086 159.414 87.3097 157.298L86.4441 156.798C85.3638 158.666 83.8645 159.679 81.9245 159.899L82.0374 160.893ZM86.3781 157.082C86.4826 158.597 87.0848 159.753 88.2443 160.432L88.7495 159.568C87.941 159.095 87.4632 158.283 87.3757 157.014L86.3781 157.082ZM88.4832 160.5L91.1112 160.572L91.1386 159.572L88.5106 159.5L88.4832 160.5ZM91.5721 159.848C90.8663 158.437 90.5449 157.319 90.5449 156.472H89.5449C89.5449 157.545 89.9435 158.827 90.6777 160.296L91.5721 159.848ZM90.5449 156.472V148.336H89.5449V156.472H90.5449ZM90.5449 148.336C90.5449 145.701 89.9393 143.631 88.6398 142.219C87.333 140.8 85.4051 140.132 82.9529 140.132V141.132C85.2287 141.132 86.8468 141.748 87.904 142.897C88.9685 144.053 89.5449 145.835 89.5449 148.336H90.5449ZM82.9529 140.132H82.7729V141.132H82.9529V140.132ZM82.7729 140.132C79.4298 140.132 76.7241 141.114 74.7154 143.122L75.4225 143.83C77.2057 142.046 79.636 141.132 82.7729 141.132V140.132ZM74.7226 143.837L76.5226 145.565L77.2152 144.843L75.4152 143.115L74.7226 143.837ZM77.2101 145.57C78.5297 144.338 80.4316 143.688 82.9889 143.688V142.688C80.2662 142.688 78.0881 143.382 76.5277 144.838L77.2101 145.57ZM82.9889 143.688C84.2441 143.688 85.0921 143.972 85.6244 144.451C86.1467 144.921 86.4489 145.655 86.4489 146.752H87.4489C87.4489 145.473 87.0911 144.425 86.2934 143.707C85.5057 142.998 84.3737 142.688 82.9889 142.688V143.688ZM79.1478 156.181C78.8616 155.781 78.7009 155.253 78.7009 154.564H77.7009C77.7009 155.411 77.9003 156.155 78.334 156.763L79.1478 156.181ZM78.7009 154.564C78.7009 153.393 79.3094 152.397 80.6891 151.573L80.1767 150.715C78.5804 151.667 77.7009 152.951 77.7009 154.564H78.7009ZM80.6942 151.57C82.0766 150.723 84.125 150.226 86.894 150.132L86.8598 149.132C84.0128 149.23 81.7652 149.741 80.1716 150.718L80.6942 151.57ZM86.3769 149.632V152.476H87.3769V149.632H86.3769ZM86.3769 152.476C86.3769 152.653 86.3163 152.96 86.153 153.427L87.0968 153.757C87.2695 153.264 87.3769 152.827 87.3769 152.476H86.3769ZM86.1458 153.449C85.7562 154.755 85.1956 155.577 84.5173 156.016L85.0605 156.856C86.0142 156.239 86.6776 155.165 87.1041 153.735L86.1458 153.449ZM84.503 156.026C83.8269 156.497 82.8262 156.764 81.4409 156.764V157.764C82.9357 157.764 84.167 157.479 85.0748 156.846L84.503 156.026ZM81.4409 156.764C80.733 156.764 80.1948 156.699 79.8086 156.586C79.4187 156.472 79.24 156.325 79.1627 156.204L78.3191 156.74C78.5778 157.147 79.0172 157.396 79.5272 157.546C80.041 157.697 80.6848 157.764 81.4409 157.764V156.764ZM100.106 141.856L99.8049 141.457L99.8006 141.46L100.106 141.856ZM97.8383 145.348H97.3383L98.317 145.492L97.8383 145.348ZM97.8383 141.532H98.3383V141.032H97.8383V141.532ZM94.4903 141.532V141.032H93.9903V141.532H94.4903ZM94.4903 160.108H93.9903V160.608H94.4903V160.108ZM97.8383 160.108V160.608H98.3383V160.108H97.8383ZM103.742 143.764V143.264H103.734L103.725 143.264L103.742 143.764ZM105.146 143.908L105.048 144.398L105.64 144.517L105.646 143.914L105.146 143.908ZM105.182 140.704L105.682 140.71L105.688 140.233L105.212 140.205L105.182 140.704ZM103.598 140.132C102.232 140.132 100.964 140.581 99.8049 141.457L100.408 142.255C101.409 141.499 102.469 141.132 103.598 141.132V140.132ZM99.8006 141.46C98.6479 142.351 97.8401 143.611 97.3596 145.204L98.317 145.492C98.7486 144.061 99.4528 142.993 100.412 142.252L99.8006 141.46ZM98.3383 145.348V141.532H97.3383V145.348H98.3383ZM97.8383 141.032H94.4903V142.032H97.8383V141.032ZM93.9903 141.532V160.108H94.9903V141.532H93.9903ZM94.4903 160.608H97.8383V159.608H94.4903V160.608ZM98.3383 160.108V149.488H97.3383V160.108H98.3383ZM98.3383 149.488C98.3383 147.693 98.7867 146.439 99.5959 145.63L98.8888 144.922C97.826 145.985 97.3383 147.539 97.3383 149.488H98.3383ZM99.5959 145.63C100.404 144.822 101.754 144.334 103.76 144.264L103.725 143.264C101.603 143.338 99.9531 143.858 98.8888 144.922L99.5959 145.63ZM103.742 144.264C104.163 144.264 104.598 144.308 105.048 144.398L105.244 143.418C104.734 143.316 104.234 143.264 103.742 143.264V144.264ZM105.646 143.914L105.682 140.71L104.682 140.698L104.646 143.902L105.646 143.914ZM105.212 140.205C104.4 140.157 103.856 140.132 103.598 140.132V141.132C103.821 141.132 104.333 141.155 105.153 141.203L105.212 140.205ZM118.21 156.688L118.703 156.606L118.544 155.647L117.857 156.334L118.21 156.688ZM112.342 144.16V143.66H111.842V144.16H112.342ZM117.706 144.16V144.66H118.206V144.16H117.706ZM117.706 141.532H118.206V141.032H117.706V141.532ZM112.342 141.532H111.842V142.032H112.342V141.532ZM112.342 135.952H112.842V135.452H112.342V135.952ZM109.066 135.952V135.452H108.566V135.952H109.066ZM109.066 141.532V142.032H109.566V141.532H109.066ZM106.438 141.532V141.032H105.938V141.532H106.438ZM106.438 144.16H105.938V144.66H106.438V144.16ZM109.066 144.16H109.566V143.66H109.066V144.16ZM118.426 157.984L118.896 158.155L118.941 158.032L118.919 157.902L118.426 157.984ZM117.857 156.334C117.363 156.828 116.555 157.124 115.33 157.124V158.124C116.697 158.124 117.81 157.796 118.564 157.042L117.857 156.334ZM115.33 157.124C114.41 157.124 113.811 156.897 113.441 156.53C113.071 156.165 112.842 155.577 112.842 154.672H111.842C111.842 155.735 112.112 156.623 112.738 157.242C113.363 157.859 114.259 158.124 115.33 158.124V157.124ZM112.842 154.672V144.16H111.842V154.672H112.842ZM112.342 144.66H117.706V143.66H112.342V144.66ZM118.206 144.16V141.532H117.206V144.16H118.206ZM117.706 141.032H112.342V142.032H117.706V141.032ZM112.842 141.532V135.952H111.842V141.532H112.842ZM112.342 135.452H109.066V136.452H112.342V135.452ZM108.566 135.952V141.532H109.566V135.952H108.566ZM109.066 141.032H106.438V142.032H109.066V141.032ZM105.938 141.532V144.16H106.938V141.532H105.938ZM106.438 144.66H109.066V143.66H106.438V144.66ZM108.566 144.16V155.176H109.566V144.16H108.566ZM108.566 155.176C108.566 156.942 108.998 158.36 109.951 159.333C110.905 160.308 112.298 160.752 114.034 160.752V159.752C112.458 159.752 111.367 159.35 110.665 158.633C109.962 157.914 109.566 156.794 109.566 155.176H108.566ZM114.034 160.752C115.269 160.752 116.316 160.556 117.144 160.129C117.984 159.695 118.576 159.032 118.896 158.155L117.956 157.813C117.725 158.448 117.308 158.919 116.685 159.241C116.048 159.57 115.175 159.752 114.034 159.752V160.752ZM118.919 157.902L118.703 156.606L117.717 156.77L117.933 158.066L118.919 157.902ZM122.37 160.108H121.87V160.608H122.37V160.108ZM126.438 160.108V160.608H126.938V160.108H126.438ZM126.438 155.68H126.938V155.18H126.438V155.68ZM122.37 155.68V155.18H121.87V155.68H122.37ZM122.37 160.608H126.438V159.608H122.37V160.608ZM126.938 160.108V155.68H125.938V160.108H126.938ZM126.438 155.18H122.37V156.18H126.438V155.18ZM121.87 155.68V160.108H122.87V155.68H121.87ZM132.792 138.364H132.292V138.864H132.792V138.364ZM136.464 138.364V138.864H136.964V138.364H136.464ZM136.464 134.836H136.964V134.336H136.464V134.836ZM132.792 134.836V134.336H132.292V134.836H132.792ZM136.284 141.208H136.784V140.708H136.284V141.208ZM132.936 141.208V140.708H132.436V141.208H132.936ZM127.464 166.228V165.728H126.874L126.971 166.31L127.464 166.228ZM127.86 168.604L127.367 168.686L127.427 169.047L127.79 169.099L127.86 168.604ZM132.792 138.864H136.464V137.864H132.792V138.864ZM136.964 138.364V134.836H135.964V138.364H136.964ZM136.464 134.336H132.792V135.336H136.464V134.336ZM132.292 134.836V138.364H133.292V134.836H132.292ZM136.284 140.708H132.936V141.708H136.284V140.708ZM132.436 141.208V162.592H133.436V141.208H132.436ZM132.436 162.592C132.436 163.658 132.047 164.4 131.292 164.903C130.5 165.429 129.249 165.728 127.464 165.728V166.728C129.328 166.728 130.813 166.421 131.845 165.735C132.913 165.026 133.436 163.95 133.436 162.592H132.436ZM126.971 166.31L127.367 168.686L128.354 168.522L127.958 166.146L126.971 166.31ZM127.79 169.099C128 169.129 128.41 169.14 128.976 169.14V168.14C128.391 168.14 128.057 168.127 127.931 168.109L127.79 169.099ZM128.976 169.14C131.483 169.14 133.455 168.548 134.801 167.275C136.152 165.998 136.784 164.116 136.784 161.728H135.784C135.784 163.948 135.199 165.522 134.114 166.549C133.023 167.58 131.342 168.14 128.976 168.14V169.14ZM136.784 161.728V141.208H135.784V161.728H136.784ZM155.14 145.168L155.276 145.649L155.755 145.513L155.622 145.034L155.14 145.168ZM152.584 141.64L152.35 142.082L152.357 142.085L152.584 141.64ZM141.568 149.344L141.22 149.703L141.225 149.708L141.568 149.344ZM144.592 150.892L144.694 150.403L144.692 150.402L144.592 150.892ZM148.084 151.468L148.145 150.972L148.145 150.972L148.084 151.468ZM151.072 152.224L150.87 152.681L150.875 152.684L151.072 152.224ZM151.288 156.4L151.572 156.812L151.572 156.812L151.288 156.4ZM142.648 154.672L143.136 154.564L143.031 154.088L142.552 154.181L142.648 154.672ZM139.876 155.212L139.78 154.721L139.296 154.816L139.384 155.301L139.876 155.212ZM153.592 158.596L153.911 158.981L153.915 158.978L153.592 158.596ZM154.24 151.216L153.881 151.564L153.886 151.57L154.24 151.216ZM151.288 149.56L151.4 149.073L151.397 149.072L151.288 149.56ZM147.76 148.912L147.831 148.417L147.822 148.416L147.76 148.912ZM144.808 148.084L145.032 147.637L145.032 147.637L144.808 148.084ZM144.232 144.34L144.564 144.714L144.57 144.709L144.575 144.704L144.232 144.34ZM146.176 143.62L146.138 143.121L146.134 143.122L146.176 143.62ZM150.712 143.908L150.584 144.392L150.596 144.394L150.712 143.908ZM152.728 145.852L152.251 146.004L152.398 146.465L152.864 146.333L152.728 145.852ZM155.622 145.034C155.116 143.215 154.195 141.9 152.811 141.195L152.357 142.085C153.421 142.628 154.204 143.665 154.658 145.302L155.622 145.034ZM152.818 141.198C151.496 140.498 149.774 140.168 147.688 140.168V141.168C149.682 141.168 151.224 141.486 152.35 142.082L152.818 141.198ZM147.688 140.168C145.193 140.168 143.232 140.624 141.884 141.615C140.507 142.628 139.844 144.142 139.844 146.068H140.844C140.844 144.394 141.405 143.208 142.476 142.421C143.576 141.612 145.286 141.168 147.688 141.168V140.168ZM139.844 146.068C139.844 147.563 140.286 148.796 141.22 149.703L141.916 148.985C141.218 148.308 140.844 147.357 140.844 146.068H139.844ZM141.225 149.708C142.135 150.566 143.229 151.124 144.492 151.382L144.692 150.402C143.603 150.18 142.68 149.706 141.911 148.98L141.225 149.708ZM144.49 151.381C145.656 151.624 146.833 151.819 148.023 151.964L148.145 150.972C146.982 150.829 145.832 150.64 144.694 150.403L144.49 151.381ZM148.023 151.964C149.165 152.104 150.111 152.347 150.87 152.681L151.274 151.767C150.401 151.381 149.354 151.12 148.145 150.972L148.023 151.964ZM150.875 152.684C151.235 152.838 151.469 153.023 151.613 153.221C151.754 153.414 151.832 153.65 151.832 153.952H152.832C152.832 153.462 152.7 153.014 152.421 152.631C152.145 152.253 151.749 151.97 151.269 151.764L150.875 152.684ZM151.832 153.952C151.832 155.005 151.519 155.633 151.004 155.988L151.572 156.812C152.449 156.207 152.832 155.203 152.832 153.952H151.832ZM151.004 155.988C150.436 156.38 149.446 156.62 147.94 156.62V157.62C149.505 157.62 150.748 157.38 151.572 156.812L151.004 155.988ZM147.94 156.62C146.388 156.62 145.238 156.418 144.451 156.054C143.684 155.7 143.277 155.202 143.136 154.564L142.16 154.78C142.379 155.774 143.033 156.5 144.031 156.962C145.008 157.414 146.324 157.62 147.94 157.62V156.62ZM142.552 154.181L139.78 154.721L139.972 155.703L142.744 155.163L142.552 154.181ZM139.384 155.301C139.707 157.086 140.606 158.456 142.08 159.364C143.533 160.259 145.503 160.68 147.94 160.68V159.68C145.6 159.68 143.839 159.273 142.604 158.512C141.39 157.764 140.645 156.65 140.368 155.123L139.384 155.301ZM147.94 160.68C150.495 160.68 152.514 160.141 153.911 158.981L153.273 158.211C152.126 159.163 150.376 159.68 147.94 159.68V160.68ZM153.915 158.978C155.265 157.835 155.964 156.416 155.964 154.744H154.964C154.964 156.096 154.415 157.245 153.269 158.214L153.915 158.978ZM155.964 154.744C155.964 153.121 155.531 151.8 154.593 150.862L153.886 151.57C154.581 152.264 154.964 153.295 154.964 154.744H155.964ZM154.599 150.868C153.715 149.958 152.645 149.358 151.4 149.073L151.176 150.047C152.235 150.29 153.133 150.794 153.881 151.564L154.599 150.868ZM151.397 149.072C150.209 148.805 149.02 148.587 147.831 148.417L147.689 149.407C148.852 149.573 150.015 149.787 151.178 150.048L151.397 149.072ZM147.822 148.416C146.712 148.277 145.785 148.014 145.032 147.637L144.584 148.531C145.463 148.97 146.504 149.259 147.698 149.408L147.822 148.416ZM145.032 147.637C144.685 147.464 144.454 147.259 144.308 147.036C144.164 146.816 144.084 146.548 144.084 146.212H143.084C143.084 146.716 143.208 147.18 143.471 147.584C143.734 147.985 144.115 148.296 144.584 148.531L145.032 147.637ZM144.084 146.212C144.084 145.42 144.283 144.964 144.564 144.714L143.9 143.966C143.317 144.484 143.084 145.276 143.084 146.212H144.084ZM144.575 144.704C144.894 144.402 145.416 144.185 146.217 144.118L146.134 143.122C145.208 143.199 144.433 143.462 143.889 143.976L144.575 144.704ZM146.214 144.119C146.504 144.096 147.109 144.084 148.048 144.084V143.084C147.115 143.084 146.472 143.096 146.138 143.121L146.214 144.119ZM148.048 144.084C148.971 144.084 149.815 144.188 150.584 144.391L150.84 143.425C149.977 143.196 149.045 143.084 148.048 143.084V144.084ZM150.596 144.394C151.42 144.59 151.964 145.101 152.251 146.004L153.204 145.7C152.82 144.491 152.02 143.706 150.828 143.422L150.596 144.394ZM152.864 146.333L155.276 145.649L155.004 144.687L152.592 145.371L152.864 146.333Z" fill="#EB0000"/>
</g>
</svg>
