<svg width="190" height="190" viewBox="0 0 190 190" fill="none" xmlns="http://www.w3.org/2000/svg">
<mask id="mask0" mask-type="alpha" maskUnits="userSpaceOnUse" x="0" y="0" width="190" height="190">
<circle cx="95" cy="95" r="95" fill="#C4C4C4"/>
</mask>
<g mask="url(#mask0)">
<path d="M146.085 92.3215C129.031 92.656 132.583 103.444 120.564 106.172C108.354 108.944 106.427 76.375 94.2204 76.375C82.0121 76.375 79.3078 108.012 64.0216 129.731L63.5854 130.346L96.359 149.25L146.085 120.565V92.3215Z" fill="#36A2EB"/>
<path d="M146.085 91.9479C140.354 84.7035 136.466 76.375 128.103 76.375C113.302 76.375 117.196 100.155 100.839 100.155C84.4796 100.155 82.7597 74.5763 64.2275 98.621C58.3224 106.282 53.5691 114.825 49.8354 122.908L96.1652 149.25L146.085 120.867V91.9479Z" fill="#FFCE56"/>
<path opacity="0.8" d="M47.0854 101.516C52.6546 86.1058 55.0582 73.625 65.6904 73.625C81.91 73.625 85.7708 119.155 99.6755 114.523C113.578 109.894 112.033 85.1988 133.661 85.1988C137.777 85.1988 141.98 87.7188 146.085 91.7949V120.698L96.5866 149.25L47.0862 120.698L47.0854 101.516Z" fill="#FE6184"/>
<path d="M95 153L44 124.001V66L95 37L146 66V124L95 153ZM49.9919 120.593L95 146.186L140.008 120.593V69.4075L95 43.8143L49.9919 69.4075V120.593Z" fill="#484E58"/>
</g>
</svg>
