<svg width="206" height="206" viewBox="0 0 206 206" fill="none" xmlns="http://www.w3.org/2000/svg">
<mask id="mask0" mask-type="alpha" maskUnits="userSpaceOnUse" x="0" y="0" width="193" height="193">
<circle cx="96.5" cy="96.5" r="96.5" fill="#C4C4C4"/>
</mask>
<g mask="url(#mask0)">
</g>
<mask id="mask1" mask-type="alpha" maskUnits="userSpaceOnUse" x="0" y="0" width="193" height="193">
<circle cx="96.5" cy="96.5" r="96.5" fill="#C4C4C4"/>
</mask>
<g mask="url(#mask1)">
</g>
<mask id="mask2" mask-type="alpha" maskUnits="userSpaceOnUse" x="6" y="6" width="193" height="193">
<circle cx="102.5" cy="102.5" r="96.5" fill="#C4C4C4"/>
</mask>
<g mask="url(#mask2)">
<path d="M111.569 133.772C111.423 132.252 110.255 129.212 106.753 129.212C103.25 129.212 101.791 129.212 101.499 129.212C100.77 129.212 99.3103 129.942 99.3103 132.86C99.3103 135.596 100.186 137.42 102.813 137.42H109.817C111.569 137.876 114.195 144.533 107.191 145.628H101.499C100.186 144.716 97.6467 143.439 97.9969 140.156" stroke="#58AF14" stroke-width="3"/>
<path d="M93.6443 128.348L94.0762 148.651C94.0762 149.515 92.3484 151.243 90.1886 151.243C85.3588 151.243 85.8688 151.243 81.981 146.924C81.981 142.777 81.981 132.524 81.981 128.348L82.4129 126.188C83.277 124.461 99.2601 116.253 100.988 116.253C102.716 116.253 113.516 122.733 118.699 127.484V146.924C114.668 150.091 101.852 157.723 100.988 157.723C100.124 157.723 98.8281 157.723 94.0762 154.699" stroke="#58AF14" stroke-width="5"/>
<path d="M193 91.1981L180.904 98.9738L179.177 98.5418V92.0621L173.561 89.0382H171.833L166.649 92.4941V99.4058L185.656 109.773V111.501L173.561 118.413L153.69 106.749V84.7184L173.561 73.0549L193 84.7184V91.1981Z" fill="#605C5C" stroke="black" stroke-width="2"/>
<path d="M176.153 93.7899L172.265 92.062L169.241 93.7899V98.5417L172.697 100.27L176.153 98.5417V93.7899Z" fill="#58AF14" stroke="black" stroke-width="0.5"/>
<path d="M59.0859 84.2863L78.5251 73.4868L98.3962 83.8544V106.749L78.5251 118.413L59.0859 106.749V84.2863Z" fill="#58AF14" stroke="black" stroke-width="2"/>
<path d="M132.091 48V76.9427L126.043 73.4869L106.172 85.5823V107.181L126.043 118.413L145.05 107.613L145.482 54.9117L132.091 48Z" fill="#58AF14" stroke="black" stroke-width="2"/>
<path d="M12 83.8544V114.093L24.5274 107.181V93.358C29.02 86.7919 35.039 89.7582 37.4869 92.494V107.181L50.0143 114.093V83.4224L30.5752 72.6229L12 83.8544Z" fill="#605C5C" stroke="black" stroke-width="2"/>
<path d="M132.523 91.2766L125.611 88.6062L119.563 92.1667V99.2879L126.266 103.294L132.523 99.2879V91.2766Z" fill="#605C5C" stroke="black" stroke-width="2"/>
<path d="M129.249 127.053C129.249 128.047 128.79 128.957 128.098 129.621C127.404 130.287 126.492 130.69 125.611 130.69C124.73 130.69 123.818 130.287 123.124 129.621C122.432 128.957 121.973 128.047 121.973 127.053C121.973 126.058 122.432 125.148 123.124 124.484C123.818 123.818 124.73 123.415 125.611 123.415C126.492 123.415 127.404 123.818 128.098 124.484C128.79 125.148 129.249 126.058 129.249 127.053Z" stroke="#58AF14" stroke-width="0.5"/>
<path d="M123.375 130.62V130.067L124.091 129.944V124.903L123.375 124.78V124.226H126.227C126.924 124.226 127.459 124.382 127.831 124.692C128.203 125 128.389 125.438 128.389 126.006C128.389 126.446 128.279 126.802 128.06 127.074C127.84 127.347 127.534 127.534 127.141 127.637L128.222 129.974L128.666 130.054V130.62H127.598L126.315 127.738L124.957 127.764V129.944L125.673 130.067V130.62H123.375ZM124.957 127.083H126.139C126.623 127.083 126.974 126.991 127.194 126.806C127.414 126.621 127.523 126.352 127.523 125.997C127.523 125.661 127.418 125.394 127.207 125.198C126.996 125.001 126.669 124.903 126.227 124.903H124.957V127.083Z" fill="#58AF14"/>
</g>
</svg>
