<svg width="206" height="206" viewBox="0 0 206 206" fill="none" xmlns="http://www.w3.org/2000/svg">
<path fill-rule="evenodd" clip-rule="evenodd" d="M32.7978 144.148H28.2795V152.843C28.2795 155.173 29.8275 155.131 32.7978 155.006V158.542C26.7316 159.25 24.3469 157.586 24.3469 152.884V144.19H21V140.404H24.3469V135.536L28.2795 134.371V140.404H32.7978V144.148ZM50.0344 140.362H53.967V158.501H50.0344V155.88C48.6538 157.794 46.4783 158.958 43.6334 158.958C38.6549 158.958 34.5549 154.798 34.5549 149.431C34.5549 144.023 38.6967 139.904 43.6334 139.904C46.4783 139.904 48.6538 141.069 50.0344 142.941V140.362ZM44.261 155.256C47.566 155.256 50.0344 152.843 50.0344 149.431C50.0344 146.062 47.566 143.607 44.261 143.607C40.9977 143.607 38.4876 146.02 38.4876 149.431C38.4876 152.843 40.9977 155.256 44.261 155.256ZM60.5353 137.658C59.1547 137.658 58.0251 136.493 58.0251 135.162C58.0251 133.789 59.1547 132.666 60.5353 132.666C61.9159 132.666 63.0454 133.789 63.0454 135.162C63.0873 136.493 61.9159 137.658 60.5353 137.658ZM58.569 158.501V140.362H62.5016V158.501H58.569ZM67.0617 158.501V132H70.9943V158.501H67.0617ZM96.5981 140.362H100.74L95.0084 158.501H91.1594L87.3523 146.27L83.5034 158.501H79.6545L73.9229 140.362H78.0647L81.6208 152.884L85.4697 140.362H89.235L93.0421 152.884L96.5981 140.362ZM105.677 137.658C104.296 137.658 103.166 136.493 103.166 135.162C103.166 133.789 104.296 132.666 105.677 132.666C107.057 132.666 108.187 133.789 108.187 135.162C108.187 136.493 107.057 137.658 105.677 137.658ZM103.668 158.501V140.362H107.601V158.501H103.668ZM121.784 139.904C125.884 139.904 128.812 142.65 128.812 147.393V158.542H124.879V147.767C124.879 145.022 123.29 143.565 120.779 143.565C118.186 143.565 116.136 145.105 116.136 148.807V158.542H112.203V140.404H116.136V142.733C117.349 140.82 119.315 139.904 121.784 139.904ZM147.471 133.123H151.404V158.542H147.471V155.921C146.09 157.835 143.915 159 141.07 159C136.092 159 131.992 154.84 131.992 149.473C131.992 144.065 136.133 139.946 141.07 139.946C143.915 139.946 146.09 141.111 147.471 142.983V133.123ZM141.739 155.256C145.045 155.256 147.513 152.843 147.513 149.431C147.513 146.062 145.045 143.607 141.739 143.607C138.476 143.607 135.966 146.02 135.966 149.431C135.966 152.843 138.434 155.256 141.739 155.256ZM164.624 159C159.102 159 155.002 154.84 155.002 149.473C155.002 144.065 159.143 139.946 164.624 139.946C168.222 139.946 171.318 141.777 172.782 144.647L169.393 146.602C168.598 144.897 166.799 143.815 164.624 143.815C161.403 143.815 158.976 146.228 158.976 149.515C158.976 152.801 161.403 155.214 164.624 155.214C166.799 155.214 168.598 154.091 169.477 152.427L172.866 154.341C171.318 157.128 168.222 159 164.624 159ZM179.35 145.396C179.35 148.683 189.182 146.686 189.182 153.425C189.182 157.045 186.002 159 182.07 159C178.43 159 175.794 157.377 174.623 154.757L178.012 152.801C178.597 154.424 180.062 155.422 182.07 155.422C183.827 155.422 185.166 154.84 185.166 153.384C185.166 150.139 175.334 151.969 175.334 145.479C175.334 142.068 178.304 139.946 182.028 139.946C185.04 139.946 187.508 141.319 188.763 143.732L185.458 145.562C184.789 144.148 183.534 143.482 182.028 143.482C180.605 143.441 179.35 144.065 179.35 145.396ZM196.168 145.396C196.168 148.683 206 146.686 206 153.425C206 157.045 202.82 159 198.888 159C195.248 159 192.612 157.377 191.441 154.757L194.83 152.801C195.415 154.424 196.88 155.422 198.888 155.422C200.645 155.422 201.984 154.84 201.984 153.384C201.984 150.139 192.152 151.969 192.152 145.479C192.152 142.068 195.123 139.946 198.846 139.946C201.858 139.946 204.327 141.319 205.582 143.732L202.277 145.562C201.607 144.148 200.352 143.482 198.846 143.482C197.424 143.441 196.168 144.065 196.168 145.396Z" fill="black"/>
<path fill-rule="evenodd" clip-rule="evenodd" d="M110.5 19C89.6089 19 76.4411 29.5007 71.25 50.3755C79.1 39.8748 88.2161 35.9529 98.725 38.6097C104.676 40.1279 108.981 44.4293 113.665 49.2369C121.389 57.0808 130.252 66.0633 149.75 66.0633C170.641 66.0633 183.809 55.5626 189 34.6877C181.15 45.1884 172.034 49.1104 161.525 46.4536C155.574 44.9354 151.269 40.6339 146.585 35.8264C138.861 27.9825 129.998 19 110.5 19ZM71.25 65.9368C50.3589 65.9368 37.1911 76.4374 32 97.3123C39.85 86.8116 48.9661 82.8897 59.475 85.5464C65.4258 87.0646 69.7306 91.3661 74.4153 96.1736C82.1387 104.018 91.0016 113 110.5 113C131.391 113 144.559 102.499 149.75 81.6245C141.9 92.1252 132.784 96.0471 122.275 93.3903C116.324 91.8721 112.019 87.5707 107.335 82.7631C99.6113 75.0458 90.7484 65.9368 71.25 65.9368Z" fill="#06B6D4"/>
</svg>
