<svg width="300" height="" viewBox="0 0 2633 440" fill="none" xmlns="http://www.w3.org/2000/svg">
<path d="M61.5739 146L300.646 280.442L239.414 319.226L0.342334 184.785L61.5739 146Z" fill="#4685A9"/>
<rect width="243.626" height="81.5222" transform="matrix(-0.840159 0.54234 -0.874939 -0.484233 301.292 279.858)" fill="#4685A9"/>
<path d="M61.2315 59L300.303 193.442L239.072 232.226L-7.34642e-05 97.7847L61.2315 59Z" fill="#4685A9"/>
<path d="M375.963 265L301.343 83H322.923L388.703 246.28L455.523 83H475.803L400.143 265H375.963ZM496.788 265V83H516.808V247.06H625.228V265H496.788ZM743.662 252L672.422 106.14V265H653.702V83H681.782L743.922 212.22L805.802 83H833.882V265H814.902V105.88L743.662 252Z" fill="black"/>
<path d="M369.315 396H358.083L336.339 295.2H347.571L364.707 378.432L389.619 295.2H400.419L425.331 378.144L442.611 295.2H453.411L431.667 396H420.435L394.947 310.608L369.315 396ZM521.514 388.368C517.482 391.344 513.258 393.6 508.842 395.136C504.522 396.576 499.77 397.296 494.586 397.296C489.402 397.296 484.506 396.336 479.898 394.416C475.386 392.496 471.45 389.856 468.09 386.496C464.826 383.136 462.234 379.2 460.314 374.688C458.394 370.08 457.434 365.136 457.434 359.856C457.434 354.672 458.346 349.824 460.17 345.312C462.09 340.8 464.634 336.864 467.802 333.504C470.97 330.144 474.714 327.504 479.034 325.584C483.45 323.664 488.106 322.704 493.002 322.704C497.802 322.704 502.266 323.664 506.394 325.584C510.618 327.504 514.218 330.144 517.194 333.504C520.266 336.864 522.666 340.8 524.394 345.312C526.218 349.824 527.13 354.672 527.13 359.856V363.168H467.946C468.714 370.272 471.642 376.176 476.73 380.88C481.818 385.584 487.914 387.936 495.018 387.936C498.762 387.936 502.41 387.36 505.962 386.208C509.514 385.056 512.49 383.424 514.89 381.312L521.514 388.368ZM492.714 332.064C486.474 332.064 481.05 334.176 476.442 338.4C471.93 342.624 469.194 348.048 468.234 354.672H516.474C515.514 348.336 512.778 343.008 508.266 338.688C503.85 334.272 498.666 332.064 492.714 332.064ZM612.156 359.856C612.156 365.04 611.196 369.936 609.276 374.544C607.452 379.152 604.908 383.136 601.644 386.496C598.38 389.76 594.492 392.352 589.98 394.272C585.564 396.192 580.812 397.152 575.724 397.152C571.5 397.152 567.372 396.432 563.34 394.992C559.404 393.552 555.804 391.488 552.54 388.8V396H542.028V295.2L552.684 292.752V331.488C555.66 328.608 559.116 326.448 563.052 325.008C567.084 323.472 571.356 322.704 575.868 322.704C580.956 322.704 585.708 323.664 590.124 325.584C594.54 327.504 598.38 330.144 601.644 333.504C604.908 336.768 607.452 340.704 609.276 345.312C611.196 349.824 612.156 354.672 612.156 359.856ZM574.86 332.064C570.348 332.064 566.124 332.976 562.188 334.8C558.348 336.528 555.18 338.976 552.684 342.144V377.856C555.18 380.928 558.396 383.376 562.332 385.2C566.268 386.928 570.444 387.792 574.86 387.792C582.444 387.792 588.78 385.152 593.868 379.872C599.052 374.496 601.644 367.872 601.644 360C601.644 356.064 600.924 352.416 599.484 349.056C598.14 345.6 596.268 342.624 593.868 340.128C591.468 337.632 588.636 335.664 585.372 334.224C582.108 332.784 578.604 332.064 574.86 332.064ZM683.41 396V388.368C680.338 391.248 676.786 393.456 672.754 394.992C668.818 396.432 664.594 397.152 660.082 397.152C654.994 397.152 650.242 396.192 645.826 394.272C641.41 392.352 637.57 389.76 634.306 386.496C631.042 383.136 628.45 379.152 626.53 374.544C624.706 369.936 623.794 365.04 623.794 359.856C623.794 354.672 624.706 349.824 626.53 345.312C628.45 340.704 631.042 336.768 634.306 333.504C637.57 330.144 641.41 327.504 645.826 325.584C650.338 323.664 655.138 322.704 660.226 322.704C664.354 322.704 668.386 323.424 672.322 324.864C676.354 326.208 680.002 328.224 683.266 330.912V295.2L693.922 292.752V396H683.41ZM634.306 359.712C634.306 363.648 634.978 367.344 636.322 370.8C637.762 374.256 639.682 377.232 642.082 379.728C644.482 382.224 647.314 384.192 650.578 385.632C653.842 387.072 657.346 387.792 661.09 387.792C665.602 387.792 669.778 386.928 673.618 385.2C677.554 383.376 680.77 380.88 683.266 377.712V342C680.77 338.928 677.554 336.528 673.618 334.8C669.682 332.976 665.506 332.064 661.09 332.064C653.602 332.064 647.266 334.704 642.082 339.984C636.898 345.264 634.306 351.84 634.306 359.712ZM772.811 388.368C768.779 391.344 764.555 393.6 760.139 395.136C755.819 396.576 751.067 397.296 745.883 397.296C740.699 397.296 735.803 396.336 731.195 394.416C726.683 392.496 722.747 389.856 719.387 386.496C716.123 383.136 713.531 379.2 711.611 374.688C709.691 370.08 708.731 365.136 708.731 359.856C708.731 354.672 709.643 349.824 711.467 345.312C713.387 340.8 715.931 336.864 719.099 333.504C722.267 330.144 726.011 327.504 730.331 325.584C734.747 323.664 739.403 322.704 744.299 322.704C749.099 322.704 753.563 323.664 757.691 325.584C761.915 327.504 765.515 330.144 768.491 333.504C771.563 336.864 773.963 340.8 775.691 345.312C777.515 349.824 778.427 354.672 778.427 359.856V363.168H719.243C720.011 370.272 722.939 376.176 728.027 380.88C733.115 385.584 739.211 387.936 746.315 387.936C750.059 387.936 753.707 387.36 757.259 386.208C760.811 385.056 763.787 383.424 766.187 381.312L772.811 388.368ZM744.011 332.064C737.771 332.064 732.347 334.176 727.739 338.4C723.227 342.624 720.491 348.048 719.531 354.672H767.771C766.811 348.336 764.075 343.008 759.563 338.688C755.147 334.272 749.963 332.064 744.011 332.064ZM813.408 396L782.16 323.856H793.968L818.592 382.176L843.216 323.856H854.592L823.488 396H813.408ZM922.296 388.368C918.264 391.344 914.04 393.6 909.624 395.136C905.304 396.576 900.552 397.296 895.368 397.296C890.184 397.296 885.288 396.336 880.68 394.416C876.168 392.496 872.232 389.856 868.872 386.496C865.608 383.136 863.016 379.2 861.096 374.688C859.176 370.08 858.216 365.136 858.216 359.856C858.216 354.672 859.128 349.824 860.952 345.312C862.872 340.8 865.416 336.864 868.584 333.504C871.752 330.144 875.496 327.504 879.816 325.584C884.232 323.664 888.888 322.704 893.784 322.704C898.584 322.704 903.048 323.664 907.176 325.584C911.4 327.504 915 330.144 917.976 333.504C921.048 336.864 923.448 340.8 925.176 345.312C927 349.824 927.912 354.672 927.912 359.856V363.168H868.728C869.496 370.272 872.424 376.176 877.512 380.88C882.6 385.584 888.696 387.936 895.8 387.936C899.544 387.936 903.192 387.36 906.744 386.208C910.296 385.056 913.272 383.424 915.672 381.312L922.296 388.368ZM893.496 332.064C887.256 332.064 881.832 334.176 877.224 338.4C872.712 342.624 869.976 348.048 869.016 354.672H917.256C916.296 348.336 913.56 343.008 909.048 338.688C904.632 334.272 899.448 332.064 893.496 332.064ZM953.465 292.752V396H942.809V295.2L953.465 292.752ZM968.325 359.856C968.325 354.672 969.285 349.776 971.205 345.168C973.125 340.56 975.717 336.576 978.981 333.216C982.341 329.856 986.277 327.216 990.789 325.296C995.301 323.376 1000.1 322.416 1005.19 322.416C1010.28 322.416 1015.03 323.376 1019.45 325.296C1023.96 327.216 1027.85 329.856 1031.11 333.216C1034.47 336.576 1037.11 340.56 1039.03 345.168C1040.95 349.776 1041.91 354.672 1041.91 359.856C1041.91 365.136 1040.95 370.08 1039.03 374.688C1037.11 379.296 1034.47 383.28 1031.11 386.64C1027.85 390 1023.96 392.64 1019.45 394.56C1015.03 396.48 1010.28 397.44 1005.19 397.44C1000.1 397.44 995.301 396.48 990.789 394.56C986.277 392.64 982.341 390 978.981 386.64C975.717 383.28 973.125 379.296 971.205 374.688C969.285 370.08 968.325 365.136 968.325 359.856ZM1005.19 387.936C1008.84 387.936 1012.25 387.216 1015.41 385.776C1018.68 384.336 1021.46 382.368 1023.77 379.872C1026.17 377.28 1028.04 374.304 1029.38 370.944C1030.73 367.488 1031.4 363.792 1031.4 359.856C1031.4 355.92 1030.73 352.272 1029.38 348.912C1028.04 345.456 1026.17 342.48 1023.77 339.984C1021.46 337.488 1018.68 335.52 1015.41 334.08C1012.25 332.64 1008.84 331.92 1005.19 331.92C1001.54 331.92 998.085 332.64 994.821 334.08C991.653 335.52 988.869 337.488 986.469 339.984C984.165 342.48 982.293 345.456 980.853 348.912C979.509 352.272 978.837 355.92 978.837 359.856C978.837 363.792 979.509 367.488 980.853 370.944C982.197 374.304 984.021 377.28 986.325 379.872C988.725 382.368 991.557 384.336 994.821 385.776C998.085 387.216 1001.54 387.936 1005.19 387.936ZM1056.72 425.52V323.856H1067.23V331.632C1070.3 328.656 1073.8 326.448 1077.74 325.008C1081.77 323.472 1086.04 322.704 1090.56 322.704C1095.64 322.704 1100.4 323.664 1104.81 325.584C1109.23 327.504 1113.07 330.144 1116.33 333.504C1119.6 336.768 1122.14 340.704 1123.96 345.312C1125.88 349.824 1126.84 354.672 1126.84 359.856C1126.84 365.04 1125.88 369.936 1123.96 374.544C1122.14 379.152 1119.6 383.136 1116.33 386.496C1113.07 389.76 1109.18 392.352 1104.67 394.272C1100.25 396.192 1095.5 397.152 1090.41 397.152C1086.19 397.152 1082.11 396.432 1078.17 394.992C1074.24 393.552 1070.64 391.488 1067.37 388.8V425.52H1056.72ZM1089.55 332.064C1085.04 332.064 1080.81 332.976 1076.88 334.8C1073.04 336.528 1069.87 338.976 1067.37 342.144V377.856C1069.87 380.928 1073.08 383.376 1077.02 385.2C1080.96 386.928 1085.13 387.792 1089.55 387.792C1097.13 387.792 1103.47 385.152 1108.56 379.872C1113.74 374.496 1116.33 367.872 1116.33 360C1116.33 356.064 1115.61 352.416 1114.17 349.056C1112.83 345.6 1110.96 342.624 1108.56 340.128C1106.16 337.632 1103.32 335.664 1100.06 334.224C1096.8 332.784 1093.29 332.064 1089.55 332.064ZM1141.65 396V323.856H1152.31V331.776C1155 328.704 1158.12 326.4 1161.67 324.864C1165.22 323.232 1169.16 322.416 1173.48 322.416C1178.47 322.416 1182.93 323.616 1186.87 326.016C1190.9 328.32 1194.02 331.488 1196.23 335.52C1199.2 331.104 1202.76 327.84 1206.88 325.728C1211.11 323.52 1215.81 322.416 1221 322.416C1228.77 322.416 1235.11 325.008 1240 330.192C1245 335.376 1247.49 342.096 1247.49 350.352V396H1236.98V352.512C1236.98 346.176 1235.3 341.136 1231.94 337.392C1228.58 333.648 1224.02 331.776 1218.26 331.776C1214.32 331.776 1210.72 332.784 1207.46 334.8C1204.2 336.816 1201.41 339.744 1199.11 343.584C1199.3 344.64 1199.44 345.744 1199.54 346.896C1199.73 347.952 1199.83 349.104 1199.83 350.352V396H1189.32V352.512C1189.32 346.176 1187.64 341.136 1184.28 337.392C1180.92 333.648 1176.4 331.776 1170.74 331.776C1166.9 331.776 1163.4 332.688 1160.23 334.512C1157.16 336.24 1154.52 338.832 1152.31 342.288V396H1141.65ZM1326.17 388.368C1322.14 391.344 1317.91 393.6 1313.5 395.136C1309.18 396.576 1304.43 397.296 1299.24 397.296C1294.06 397.296 1289.16 396.336 1284.55 394.416C1280.04 392.496 1276.11 389.856 1272.75 386.496C1269.48 383.136 1266.89 379.2 1264.97 374.688C1263.05 370.08 1262.09 365.136 1262.09 359.856C1262.09 354.672 1263 349.824 1264.83 345.312C1266.75 340.8 1269.29 336.864 1272.46 333.504C1275.63 330.144 1279.37 327.504 1283.69 325.584C1288.11 323.664 1292.76 322.704 1297.66 322.704C1302.46 322.704 1306.92 323.664 1311.05 325.584C1315.27 327.504 1318.87 330.144 1321.85 333.504C1324.92 336.864 1327.32 340.8 1329.05 345.312C1330.87 349.824 1331.79 354.672 1331.79 359.856V363.168H1272.6C1273.37 370.272 1276.3 376.176 1281.39 380.88C1286.47 385.584 1292.57 387.936 1299.67 387.936C1303.42 387.936 1307.07 387.36 1310.62 386.208C1314.17 385.056 1317.15 383.424 1319.55 381.312L1326.17 388.368ZM1297.37 332.064C1291.13 332.064 1285.71 334.176 1281.1 338.4C1276.59 342.624 1273.85 348.048 1272.89 354.672H1321.13C1320.17 348.336 1317.43 343.008 1312.92 338.688C1308.51 334.272 1303.32 332.064 1297.37 332.064ZM1346.68 396V323.856H1357.34V332.352C1360.12 329.088 1363.44 326.64 1367.28 325.008C1371.12 323.28 1375.39 322.416 1380.09 322.416C1388.25 322.416 1394.92 325.008 1400.11 330.192C1405.29 335.376 1407.88 342.096 1407.88 350.352V396H1397.37V352.512C1397.37 346.176 1395.55 341.136 1391.9 337.392C1388.25 333.648 1383.36 331.776 1377.21 331.776C1372.89 331.776 1369 332.736 1365.55 334.656C1362.19 336.576 1359.45 339.312 1357.34 342.864V396H1346.68ZM1431.83 379.872V332.928H1416.28V323.856H1431.83V305.568L1442.34 302.832V323.856H1464.09V332.928H1442.34V377.136C1442.34 380.976 1443.21 383.76 1444.93 385.488C1446.66 387.12 1449.49 387.936 1453.43 387.936C1455.45 387.936 1457.22 387.792 1458.76 387.504C1460.39 387.216 1462.12 386.736 1463.94 386.064V395.424C1462.12 396.096 1460.05 396.576 1457.75 396.864C1455.54 397.152 1453.38 397.296 1451.27 397.296C1445.03 397.296 1440.23 395.808 1436.87 392.832C1433.51 389.856 1431.83 385.536 1431.83 379.872Z" fill="#4685A9"/>
</svg>
