<svg width="240" viewBox="0 0 2633 440" fill="none" xmlns="http://www.w3.org/2000/svg">
<path d="M61.5739 146L300.646 280.442L239.414 319.226L0.342334 184.785L61.5739 146Z" fill="#4685A9"/>
<rect width="243.626" height="81.5222" transform="matrix(-0.840159 0.54234 -0.874939 -0.484233 301.292 279.858)" fill="#4685A9"/>
<path d="M61.2315 59L300.303 193.442L239.072 232.226L-7.34642e-05 97.7847L61.2315 59Z" fill="#4685A9"/>
<path d="M375.963 265L301.343 83H322.923L388.703 246.28L455.523 83H475.803L400.143 265H375.963ZM496.788 265V83H516.808V247.06H625.228V265H496.788ZM743.662 252L672.422 106.14V265H653.702V83H681.782L743.922 212.22L805.802 83H833.882V265H814.902V105.88L743.662 252Z" fill="black"/>
<path d="M369.315 396H358.083L336.339 295.2H347.571L364.707 378.432L389.619 295.2H400.419L425.331 378.144L442.611 295.2H453.411L431.667 396H420.435L394.947 310.608L369.315 396ZM521.514 388.368C517.482 391.344 513.258 393.6 508.842 395.136C504.522 396.576 499.77 397.296 494.586 397.296C489.402 397.296 484.506 396.336 479.898 394.416C475.386 392.496 471.45 389.856 468.09 386.496C464.826 383.136 462.234 379.2 460.314 374.688C458.394 370.08 457.434 365.136 457.434 359.856C457.434 354.672 458.346 349.824 460.17 345.312C462.09 340.8 464.634 336.864 467.802 333.504C470.97 330.144 474.714 327.504 479.034 325.584C483.45 323.664 488.106 322.704 493.002 322.704C497.802 322.704 502.266 323.664 506.394 325.584C510.618 327.504 514.218 330.144 517.194 333.504C520.266 336.864 522.666 340.8 524.394 345.312C526.218 349.824 527.13 354.672 527.13 359.856V363.168H467.946C468.714 370.272 471.642 376.176 476.73 380.88C481.818 385.584 487.914 387.936 495.018 387.936C498.762 387.936 502.41 387.36 505.962 386.208C509.514 385.056 512.49 383.424 514.89 381.312L521.514 388.368ZM492.714 332.064C486.474 332.064 481.05 334.176 476.442 338.4C471.93 342.624 469.194 348.048 468.234 354.672H516.474C515.514 348.336 512.778 343.008 508.266 338.688C503.85 334.272 498.666 332.064 492.714 332.064ZM612.156 359.856C612.156 365.04 611.196 369.936 609.276 374.544C607.452 379.152 604.908 383.136 601.644 386.496C598.38 389.76 594.492 392.352 589.98 394.272C585.564 396.192 580.812 397.152 575.724 397.152C571.5 397.152 567.372 396.432 563.34 394.992C559.404 393.552 555.804 391.488 552.54 388.8V396H542.028V295.2L552.684 292.752V331.488C555.66 328.608 559.116 326.448 563.052 325.008C567.084 323.472 571.356 322.704 575.868 322.704C580.956 322.704 585.708 323.664 590.124 325.584C594.54 327.504 598.38 330.144 601.644 333.504C604.908 336.768 607.452 340.704 609.276 345.312C611.196 349.824 612.156 354.672 612.156 359.856ZM574.86 332.064C570.348 332.064 566.124 332.976 562.188 334.8C558.348 336.528 555.18 338.976 552.684 342.144V377.856C555.18 380.928 558.396 383.376 562.332 385.2C566.268 386.928 570.444 387.792 574.86 387.792C582.444 387.792 588.78 385.152 593.868 379.872C599.052 374.496 601.644 367.872 601.644 360C601.644 356.064 600.924 352.416 599.484 349.056C598.14 345.6 596.268 342.624 593.868 340.128C591.468 337.632 588.636 335.664 585.372 334.224C582.108 332.784 578.604 332.064 574.86 332.064ZM659.919 396V295.2H693.183C700.767 295.2 707.823 296.496 714.351 299.088C720.879 301.584 726.495 305.04 731.199 309.456C735.903 313.872 739.551 319.2 742.143 325.44C744.831 331.584 746.175 338.304 746.175 345.6C746.175 352.896 744.831 359.664 742.143 365.904C739.551 372.048 735.903 377.328 731.199 381.744C726.591 386.16 721.023 389.664 714.495 392.256C707.967 394.752 700.863 396 693.183 396H659.919ZM693.759 305.28H671.007V385.92H693.759C699.519 385.92 704.943 384.912 710.031 382.896C715.119 380.784 719.487 377.952 723.135 374.4C726.783 370.752 729.663 366.48 731.775 361.584C733.887 356.592 734.943 351.264 734.943 345.6C734.943 339.936 733.887 334.656 731.775 329.76C729.663 324.768 726.783 320.496 723.135 316.944C719.487 313.296 715.119 310.464 710.031 308.448C704.943 306.336 699.519 305.28 693.759 305.28ZM822.311 388.368C818.279 391.344 814.055 393.6 809.639 395.136C805.319 396.576 800.567 397.296 795.383 397.296C790.199 397.296 785.303 396.336 780.695 394.416C776.183 392.496 772.247 389.856 768.887 386.496C765.623 383.136 763.031 379.2 761.111 374.688C759.191 370.08 758.231 365.136 758.231 359.856C758.231 354.672 759.143 349.824 760.967 345.312C762.887 340.8 765.431 336.864 768.599 333.504C771.767 330.144 775.511 327.504 779.831 325.584C784.247 323.664 788.903 322.704 793.799 322.704C798.599 322.704 803.063 323.664 807.191 325.584C811.415 327.504 815.015 330.144 817.991 333.504C821.063 336.864 823.463 340.8 825.191 345.312C827.015 349.824 827.927 354.672 827.927 359.856V363.168H768.743C769.511 370.272 772.439 376.176 777.527 380.88C782.615 385.584 788.711 387.936 795.815 387.936C799.559 387.936 803.207 387.36 806.759 386.208C810.311 385.056 813.287 383.424 815.687 381.312L822.311 388.368ZM793.511 332.064C787.271 332.064 781.847 334.176 777.239 338.4C772.727 342.624 769.991 348.048 769.031 354.672H817.271C816.311 348.336 813.575 343.008 809.063 338.688C804.647 334.272 799.463 332.064 793.511 332.064ZM862.908 396L831.66 323.856H843.468L868.092 382.176L892.716 323.856H904.092L872.988 396H862.908ZM971.796 388.368C967.764 391.344 963.54 393.6 959.124 395.136C954.804 396.576 950.052 397.296 944.868 397.296C939.684 397.296 934.788 396.336 930.18 394.416C925.668 392.496 921.732 389.856 918.372 386.496C915.108 383.136 912.516 379.2 910.596 374.688C908.676 370.08 907.716 365.136 907.716 359.856C907.716 354.672 908.628 349.824 910.452 345.312C912.372 340.8 914.916 336.864 918.084 333.504C921.252 330.144 924.996 327.504 929.316 325.584C933.732 323.664 938.388 322.704 943.284 322.704C948.084 322.704 952.548 323.664 956.676 325.584C960.9 327.504 964.5 330.144 967.476 333.504C970.548 336.864 972.948 340.8 974.676 345.312C976.5 349.824 977.412 354.672 977.412 359.856V363.168H918.228C918.996 370.272 921.924 376.176 927.012 380.88C932.1 385.584 938.196 387.936 945.3 387.936C949.044 387.936 952.692 387.36 956.244 386.208C959.796 385.056 962.772 383.424 965.172 381.312L971.796 388.368ZM942.996 332.064C936.756 332.064 931.332 334.176 926.724 338.4C922.212 342.624 919.476 348.048 918.516 354.672H966.756C965.796 348.336 963.06 343.008 958.548 338.688C954.132 334.272 948.948 332.064 942.996 332.064ZM1002.96 292.752V396H992.309V295.2L1002.96 292.752ZM1017.83 359.856C1017.83 354.672 1018.79 349.776 1020.71 345.168C1022.63 340.56 1025.22 336.576 1028.48 333.216C1031.84 329.856 1035.78 327.216 1040.29 325.296C1044.8 323.376 1049.6 322.416 1054.69 322.416C1059.78 322.416 1064.53 323.376 1068.95 325.296C1073.46 327.216 1077.35 329.856 1080.61 333.216C1083.97 336.576 1086.61 340.56 1088.53 345.168C1090.45 349.776 1091.41 354.672 1091.41 359.856C1091.41 365.136 1090.45 370.08 1088.53 374.688C1086.61 379.296 1083.97 383.28 1080.61 386.64C1077.35 390 1073.46 392.64 1068.95 394.56C1064.53 396.48 1059.78 397.44 1054.69 397.44C1049.6 397.44 1044.8 396.48 1040.29 394.56C1035.78 392.64 1031.84 390 1028.48 386.64C1025.22 383.28 1022.63 379.296 1020.71 374.688C1018.79 370.08 1017.83 365.136 1017.83 359.856ZM1054.69 387.936C1058.34 387.936 1061.75 387.216 1064.91 385.776C1068.18 384.336 1070.96 382.368 1073.27 379.872C1075.67 377.28 1077.54 374.304 1078.88 370.944C1080.23 367.488 1080.9 363.792 1080.9 359.856C1080.9 355.92 1080.23 352.272 1078.88 348.912C1077.54 345.456 1075.67 342.48 1073.27 339.984C1070.96 337.488 1068.18 335.52 1064.91 334.08C1061.75 332.64 1058.34 331.92 1054.69 331.92C1051.04 331.92 1047.59 332.64 1044.32 334.08C1041.15 335.52 1038.37 337.488 1035.97 339.984C1033.67 342.48 1031.79 345.456 1030.35 348.912C1029.01 352.272 1028.34 355.92 1028.34 359.856C1028.34 363.792 1029.01 367.488 1030.35 370.944C1031.7 374.304 1033.52 377.28 1035.83 379.872C1038.23 382.368 1041.06 384.336 1044.32 385.776C1047.59 387.216 1051.04 387.936 1054.69 387.936ZM1106.22 425.52V323.856H1116.73V331.632C1119.8 328.656 1123.3 326.448 1127.24 325.008C1131.27 323.472 1135.54 322.704 1140.06 322.704C1145.14 322.704 1149.9 323.664 1154.31 325.584C1158.73 327.504 1162.57 330.144 1165.83 333.504C1169.1 336.768 1171.64 340.704 1173.46 345.312C1175.38 349.824 1176.34 354.672 1176.34 359.856C1176.34 365.04 1175.38 369.936 1173.46 374.544C1171.64 379.152 1169.1 383.136 1165.83 386.496C1162.57 389.76 1158.68 392.352 1154.17 394.272C1149.75 396.192 1145 397.152 1139.91 397.152C1135.69 397.152 1131.61 396.432 1127.67 394.992C1123.74 393.552 1120.14 391.488 1116.87 388.8V425.52H1106.22ZM1139.05 332.064C1134.54 332.064 1130.31 332.976 1126.38 334.8C1122.54 336.528 1119.37 338.976 1116.87 342.144V377.856C1119.37 380.928 1122.58 383.376 1126.52 385.2C1130.46 386.928 1134.63 387.792 1139.05 387.792C1146.63 387.792 1152.97 385.152 1158.06 379.872C1163.24 374.496 1165.83 367.872 1165.83 360C1165.83 356.064 1165.11 352.416 1163.67 349.056C1162.33 345.6 1160.46 342.624 1158.06 340.128C1155.66 337.632 1152.82 335.664 1149.56 334.224C1146.3 332.784 1142.79 332.064 1139.05 332.064ZM1191.15 396V323.856H1201.81V331.776C1204.5 328.704 1207.62 326.4 1211.17 324.864C1214.72 323.232 1218.66 322.416 1222.98 322.416C1227.97 322.416 1232.43 323.616 1236.37 326.016C1240.4 328.32 1243.52 331.488 1245.73 335.52C1248.7 331.104 1252.26 327.84 1256.38 325.728C1260.61 323.52 1265.31 322.416 1270.5 322.416C1278.27 322.416 1284.61 325.008 1289.5 330.192C1294.5 335.376 1296.99 342.096 1296.99 350.352V396H1286.48V352.512C1286.48 346.176 1284.8 341.136 1281.44 337.392C1278.08 333.648 1273.52 331.776 1267.76 331.776C1263.82 331.776 1260.22 332.784 1256.96 334.8C1253.7 336.816 1250.91 339.744 1248.61 343.584C1248.8 344.64 1248.94 345.744 1249.04 346.896C1249.23 347.952 1249.33 349.104 1249.33 350.352V396H1238.82V352.512C1238.82 346.176 1237.14 341.136 1233.78 337.392C1230.42 333.648 1225.9 331.776 1220.24 331.776C1216.4 331.776 1212.9 332.688 1209.73 334.512C1206.66 336.24 1204.02 338.832 1201.81 342.288V396H1191.15ZM1375.67 388.368C1371.64 391.344 1367.41 393.6 1363 395.136C1358.68 396.576 1353.93 397.296 1348.74 397.296C1343.56 397.296 1338.66 396.336 1334.05 394.416C1329.54 392.496 1325.61 389.856 1322.25 386.496C1318.98 383.136 1316.39 379.2 1314.47 374.688C1312.55 370.08 1311.59 365.136 1311.59 359.856C1311.59 354.672 1312.5 349.824 1314.33 345.312C1316.25 340.8 1318.79 336.864 1321.96 333.504C1325.13 330.144 1328.87 327.504 1333.19 325.584C1337.61 323.664 1342.26 322.704 1347.16 322.704C1351.96 322.704 1356.42 323.664 1360.55 325.584C1364.77 327.504 1368.37 330.144 1371.35 333.504C1374.42 336.864 1376.82 340.8 1378.55 345.312C1380.37 349.824 1381.29 354.672 1381.29 359.856V363.168H1322.1C1322.87 370.272 1325.8 376.176 1330.89 380.88C1335.97 385.584 1342.07 387.936 1349.17 387.936C1352.92 387.936 1356.57 387.36 1360.12 386.208C1363.67 385.056 1366.65 383.424 1369.05 381.312L1375.67 388.368ZM1346.87 332.064C1340.63 332.064 1335.21 334.176 1330.6 338.4C1326.09 342.624 1323.35 348.048 1322.39 354.672H1370.63C1369.67 348.336 1366.93 343.008 1362.42 338.688C1358.01 334.272 1352.82 332.064 1346.87 332.064ZM1396.18 396V323.856H1406.84V332.352C1409.62 329.088 1412.94 326.64 1416.78 325.008C1420.62 323.28 1424.89 322.416 1429.59 322.416C1437.75 322.416 1444.42 325.008 1449.61 330.192C1454.79 335.376 1457.38 342.096 1457.38 350.352V396H1446.87V352.512C1446.87 346.176 1445.05 341.136 1441.4 337.392C1437.75 333.648 1432.86 331.776 1426.71 331.776C1422.39 331.776 1418.5 332.736 1415.05 334.656C1411.69 336.576 1408.95 339.312 1406.84 342.864V396H1396.18ZM1481.33 379.872V332.928H1465.78V323.856H1481.33V305.568L1491.84 302.832V323.856H1513.59V332.928H1491.84V377.136C1491.84 380.976 1492.71 383.76 1494.43 385.488C1496.16 387.12 1498.99 387.936 1502.93 387.936C1504.95 387.936 1506.72 387.792 1508.26 387.504C1509.89 387.216 1511.62 386.736 1513.44 386.064V395.424C1511.62 396.096 1509.55 396.576 1507.25 396.864C1505.04 397.152 1502.88 397.296 1500.77 397.296C1494.53 397.296 1489.73 395.808 1486.37 392.832C1483.01 389.856 1481.33 385.536 1481.33 379.872Z" fill="#4685A9"/>
</svg>
