<svg width="206" height="206" viewBox="0 0 206 206" fill="none" xmlns="http://www.w3.org/2000/svg">
<mask id="mask0" mask-type="alpha" maskUnits="userSpaceOnUse" x="0" y="0" width="193" height="193">
<circle cx="96.5" cy="96.5" r="96.5" fill="#C4C4C4"/>
</mask>
<g mask="url(#mask0)">
</g>
<mask id="mask1" mask-type="alpha" maskUnits="userSpaceOnUse" x="0" y="0" width="193" height="193">
<circle cx="96.5" cy="96.5" r="96.5" fill="#C4C4C4"/>
</mask>
<g mask="url(#mask1)">
</g>
<mask id="mask2" mask-type="alpha" maskUnits="userSpaceOnUse" x="0" y="0" width="193" height="193">
<circle cx="96.5" cy="96.5" r="96.5" fill="#C4C4C4"/>
</mask>
<g mask="url(#mask2)">
<path d="M66.9814 32.4413L89.0849 32.4496L103.534 56.4327L117.931 32.4516L140.016 32.4457L103.644 95.5361L66.9814 32.4413Z" fill="#35495E"/>
<path d="M42.875 32.6101L66.9619 32.4457L103.623 95.5389L139.996 32.4495L164.125 32.4748L103.619 136.314L42.875 32.6101Z" fill="#41B883"/>
<mask id="path-6-inside-1" fill="white">
<path d="M64.9718 137C64.5368 137 64.1036 137.124 63.7273 137.373C63.351 137.621 63.006 138.05 63.006 138.6C63.006 138.672 62.9634 138.834 63.1051 139.118L63.0682 139.028L70.6316 163.537C70.767 163.997 71.092 164.348 71.4566 164.55C71.8212 164.752 72.2224 164.828 72.6111 164.828C73.4376 164.828 74.3451 164.435 74.623 163.546V163.544L82.1793 138.943V138.853C82.1793 138.977 82.2162 138.905 82.2162 138.637C82.2162 138.077 81.8585 137.666 81.4765 137.407C81.0944 137.149 80.6446 137 80.1767 137C79.5997 137 78.9359 137.351 78.7134 138.017L78.7088 138.024L72.6089 158.358L66.4858 138.061C66.3951 137.698 66.1505 137.394 65.8659 137.225C65.5814 137.056 65.2709 137 64.9718 137ZM125.211 138.264C124.007 138.264 122.992 139.185 122.992 140.338C122.992 141.49 123.991 142.444 125.211 142.444C126.408 142.444 127.359 141.472 127.359 140.338C127.359 139.203 126.391 138.264 125.211 138.264ZM107.479 146.11C103.363 146.11 99.9729 149.4 99.9729 153.354V157.405C99.9729 159.62 100.856 161.518 102.356 162.828C103.855 164.139 105.948 164.863 108.347 164.863C110.119 164.863 111.564 164.467 112.597 163.928C113.113 163.659 113.528 163.358 113.834 163.029C114.14 162.699 114.367 162.339 114.367 161.889C114.367 161.476 114.207 161.118 113.949 160.796C113.692 160.474 113.286 160.179 112.763 160.179C112.385 160.179 112.095 160.338 111.843 160.492C111.592 160.646 111.355 160.816 111.071 160.98C110.503 161.307 109.749 161.624 108.419 161.624C106.937 161.624 105.702 161.203 104.851 160.494C104.001 159.786 103.506 158.803 103.506 157.513V156.763H111.099C111.909 156.763 112.809 156.764 113.588 156.268C114.366 155.772 114.839 154.785 114.839 153.283C114.839 149.124 111.365 146.11 107.479 146.11ZM136.015 146.11C133.828 146.11 132.219 146.817 131.185 147.881C130.152 148.944 129.706 150.326 129.706 151.619C129.706 153.265 130.372 154.446 131.326 155.202C132.28 155.959 133.466 156.34 134.596 156.68C135.725 157.02 136.806 157.322 137.532 157.769C138.257 158.216 138.647 158.699 138.647 159.719C138.647 160.266 138.482 160.702 138.036 161.058C137.59 161.414 136.799 161.696 135.508 161.696C133.982 161.696 133.129 161.32 132.508 160.936C132.197 160.744 131.947 160.545 131.69 160.368C131.432 160.19 131.14 159.997 130.731 159.997C130.239 159.997 129.875 160.3 129.655 160.614C129.434 160.928 129.307 161.284 129.307 161.67C129.307 162.148 129.54 162.568 129.869 162.932C130.199 163.296 130.645 163.62 131.192 163.903C132.286 164.469 133.793 164.863 135.582 164.863C137.525 164.863 139.122 164.389 140.253 163.47C141.384 162.551 142 161.185 142 159.61C142 157.831 141.353 156.552 140.398 155.707C139.444 154.861 138.24 154.425 137.094 154.075C135.948 153.724 134.845 153.451 134.107 153.066C133.369 152.682 133.022 152.327 133.022 151.51C133.022 151.068 133.199 150.513 133.649 150.074C134.098 149.636 134.832 149.28 136.052 149.28C137.027 149.28 137.751 149.504 138.331 149.74C138.621 149.859 138.873 149.982 139.112 150.086C139.352 150.189 139.572 150.291 139.889 150.291C140.461 150.291 140.854 149.913 141.087 149.563C141.321 149.213 141.456 148.867 141.456 148.472C141.456 147.977 141.148 147.626 140.806 147.363C140.465 147.099 140.037 146.89 139.541 146.709C138.549 146.346 137.285 146.11 136.015 146.11ZM84.2689 146.329C83.3119 146.329 82.4852 146.928 82.4852 147.821V157.477C82.4852 161.394 85.8194 164.863 89.9541 164.863C94.019 164.863 97.4229 161.434 97.4229 157.477V147.786C97.4229 147.34 97.1769 146.952 96.8537 146.707C96.5305 146.461 96.1198 146.329 95.6738 146.329C95.2278 146.329 94.8148 146.459 94.4847 146.7C94.1546 146.94 93.8901 147.325 93.8901 147.786V157.477C93.8901 159.53 92.0987 161.516 89.9541 161.516C87.7739 161.516 86.0181 159.495 86.0181 157.477V147.821C86.0181 147.358 85.7652 147.002 85.4512 146.748C85.1372 146.494 84.727 146.329 84.2689 146.329ZM125.212 146.329C124.765 146.329 124.35 146.444 124.021 146.693C123.691 146.941 123.465 147.351 123.465 147.786V165.577C123.465 166.912 123.372 168.032 123.078 168.71C122.785 169.387 122.439 169.688 121.449 169.688C120.575 169.688 119.845 170.451 119.845 171.363C119.845 171.743 119.968 172.159 120.278 172.484C120.589 172.81 121.071 173 121.629 173C123.51 173 124.949 172.167 125.807 170.813C126.664 169.46 126.998 167.649 126.998 165.577V147.786C126.998 147.322 126.733 146.919 126.397 146.681C126.06 146.443 125.647 146.329 125.212 146.329ZM107.442 149.243C109.791 149.243 111.378 151.208 111.378 153.209C111.378 153.427 111.354 153.57 111.332 153.635C111.309 153.7 111.311 153.691 111.279 153.713C111.214 153.757 110.851 153.849 110.157 153.849H103.506V153.064C103.506 150.97 105.257 149.243 107.442 149.243ZM118.665 160.287C117.381 160.287 116.409 161.348 116.409 162.575C116.409 163.754 117.367 164.828 118.665 164.828C119.894 164.828 120.884 163.787 120.884 162.575C120.884 161.318 119.878 160.287 118.665 160.287Z"/>
</mask>
<path d="M64.9718 137C64.5368 137 64.1036 137.124 63.7273 137.373C63.351 137.621 63.006 138.05 63.006 138.6C63.006 138.672 62.9634 138.834 63.1051 139.118L63.0682 139.028L70.6316 163.537C70.767 163.997 71.092 164.348 71.4566 164.55C71.8212 164.752 72.2224 164.828 72.6111 164.828C73.4376 164.828 74.3451 164.435 74.623 163.546V163.544L82.1793 138.943V138.853C82.1793 138.977 82.2162 138.905 82.2162 138.637C82.2162 138.077 81.8585 137.666 81.4765 137.407C81.0944 137.149 80.6446 137 80.1767 137C79.5997 137 78.9359 137.351 78.7134 138.017L78.7088 138.024L72.6089 158.358L66.4858 138.061C66.3951 137.698 66.1505 137.394 65.8659 137.225C65.5814 137.056 65.2709 137 64.9718 137ZM125.211 138.264C124.007 138.264 122.992 139.185 122.992 140.338C122.992 141.49 123.991 142.444 125.211 142.444C126.408 142.444 127.359 141.472 127.359 140.338C127.359 139.203 126.391 138.264 125.211 138.264ZM107.479 146.11C103.363 146.11 99.9729 149.4 99.9729 153.354V157.405C99.9729 159.62 100.856 161.518 102.356 162.828C103.855 164.139 105.948 164.863 108.347 164.863C110.119 164.863 111.564 164.467 112.597 163.928C113.113 163.659 113.528 163.358 113.834 163.029C114.14 162.699 114.367 162.339 114.367 161.889C114.367 161.476 114.207 161.118 113.949 160.796C113.692 160.474 113.286 160.179 112.763 160.179C112.385 160.179 112.095 160.338 111.843 160.492C111.592 160.646 111.355 160.816 111.071 160.98C110.503 161.307 109.749 161.624 108.419 161.624C106.937 161.624 105.702 161.203 104.851 160.494C104.001 159.786 103.506 158.803 103.506 157.513V156.763H111.099C111.909 156.763 112.809 156.764 113.588 156.268C114.366 155.772 114.839 154.785 114.839 153.283C114.839 149.124 111.365 146.11 107.479 146.11ZM136.015 146.11C133.828 146.11 132.219 146.817 131.185 147.881C130.152 148.944 129.706 150.326 129.706 151.619C129.706 153.265 130.372 154.446 131.326 155.202C132.28 155.959 133.466 156.34 134.596 156.68C135.725 157.02 136.806 157.322 137.532 157.769C138.257 158.216 138.647 158.699 138.647 159.719C138.647 160.266 138.482 160.702 138.036 161.058C137.59 161.414 136.799 161.696 135.508 161.696C133.982 161.696 133.129 161.32 132.508 160.936C132.197 160.744 131.947 160.545 131.69 160.368C131.432 160.19 131.14 159.997 130.731 159.997C130.239 159.997 129.875 160.3 129.655 160.614C129.434 160.928 129.307 161.284 129.307 161.67C129.307 162.148 129.54 162.568 129.869 162.932C130.199 163.296 130.645 163.62 131.192 163.903C132.286 164.469 133.793 164.863 135.582 164.863C137.525 164.863 139.122 164.389 140.253 163.47C141.384 162.551 142 161.185 142 159.61C142 157.831 141.353 156.552 140.398 155.707C139.444 154.861 138.24 154.425 137.094 154.075C135.948 153.724 134.845 153.451 134.107 153.066C133.369 152.682 133.022 152.327 133.022 151.51C133.022 151.068 133.199 150.513 133.649 150.074C134.098 149.636 134.832 149.28 136.052 149.28C137.027 149.28 137.751 149.504 138.331 149.74C138.621 149.859 138.873 149.982 139.112 150.086C139.352 150.189 139.572 150.291 139.889 150.291C140.461 150.291 140.854 149.913 141.087 149.563C141.321 149.213 141.456 148.867 141.456 148.472C141.456 147.977 141.148 147.626 140.806 147.363C140.465 147.099 140.037 146.89 139.541 146.709C138.549 146.346 137.285 146.11 136.015 146.11ZM84.2689 146.329C83.3119 146.329 82.4852 146.928 82.4852 147.821V157.477C82.4852 161.394 85.8194 164.863 89.9541 164.863C94.019 164.863 97.4229 161.434 97.4229 157.477V147.786C97.4229 147.34 97.1769 146.952 96.8537 146.707C96.5305 146.461 96.1198 146.329 95.6738 146.329C95.2278 146.329 94.8148 146.459 94.4847 146.7C94.1546 146.94 93.8901 147.325 93.8901 147.786V157.477C93.8901 159.53 92.0987 161.516 89.9541 161.516C87.7739 161.516 86.0181 159.495 86.0181 157.477V147.821C86.0181 147.358 85.7652 147.002 85.4512 146.748C85.1372 146.494 84.727 146.329 84.2689 146.329ZM125.212 146.329C124.765 146.329 124.35 146.444 124.021 146.693C123.691 146.941 123.465 147.351 123.465 147.786V165.577C123.465 166.912 123.372 168.032 123.078 168.71C122.785 169.387 122.439 169.688 121.449 169.688C120.575 169.688 119.845 170.451 119.845 171.363C119.845 171.743 119.968 172.159 120.278 172.484C120.589 172.81 121.071 173 121.629 173C123.51 173 124.949 172.167 125.807 170.813C126.664 169.46 126.998 167.649 126.998 165.577V147.786C126.998 147.322 126.733 146.919 126.397 146.681C126.06 146.443 125.647 146.329 125.212 146.329ZM107.442 149.243C109.791 149.243 111.378 151.208 111.378 153.209C111.378 153.427 111.354 153.57 111.332 153.635C111.309 153.7 111.311 153.691 111.279 153.713C111.214 153.757 110.851 153.849 110.157 153.849H103.506V153.064C103.506 150.97 105.257 149.243 107.442 149.243ZM118.665 160.287C117.381 160.287 116.409 161.348 116.409 162.575C116.409 163.754 117.367 164.828 118.665 164.828C119.894 164.828 120.884 163.787 120.884 162.575C120.884 161.318 119.878 160.287 118.665 160.287Z" fill="#000305" stroke="black" stroke-width="38" mask="url(#path-6-inside-1)"/>
</g>
</svg>
